<?xml version="1.0" standalone="no"?>
<!DOCTYPE svg PUBLIC "-//W3C//DTD SVG 1.1//EN" "http://www.w3.org/Graphics/SVG/1.1/DTD/svg11.dtd" >
<svg xmlns="http://www.w3.org/2000/svg">
<metadata>
This is a custom SVG webfont generated by Font Squirrel.
Copyright   : Copyright supermattyb 2011
Designer    : supermattyb
Foundry     : httpfontstructcom
Foundry URL : httpwwwfontshopcom
</metadata>
<defs>
<font id="KILLERLASAGNARegular" horiz-adv-x="1024" >
<font-face units-per-em="2048" ascent="1280" descent="-768" />
<missing-glyph horiz-adv-x="1408" />
<glyph unicode=" "  horiz-adv-x="1408" />
<glyph unicode="&#x09;" horiz-adv-x="1408" />
<glyph unicode="&#xa0;" horiz-adv-x="1408" />
<glyph unicode="!" horiz-adv-x="512" d="M0 0v256h256v-256h-256zM0 512v768h256v-768h-256z" />
<glyph unicode="&#x22;" d="M0 768v512h256v-512h-256zM512 768v512h256v-512h-256z" />
<glyph unicode="#" horiz-adv-x="1536" d="M0 256v256h256v256h-256v256h256v256h256v-256h256v256h256v-256h256v-256h-256v-256h256v-256h-256v-256h-256v256h-256v-256h-256v256h-256zM512 512h256v256h-256v-256z" />
<glyph unicode="$" d="M0 0v256h512v256h256v-512h-256v-256h-256v256h-256zM0 768v512h256v256h256v-256h256v-256h-512v-256h-256zM256 512v256h256v-256h-256z" />
<glyph unicode="%" horiz-adv-x="1280" d="M0 0h256v-256h-256v256zM0 1024v256h256v-256h-256zM256 0v512h256v-512h-256zM512 512v512h256v-512h-256zM768 0h256v-256h-256v256zM768 1024v256h256v-256h-256z" />
<glyph unicode="&#x26;" horiz-adv-x="1536" d="M0 512v256h512v512h256v-512h512v-256h-512v-512h-256v512h-512z" />
<glyph unicode="'" horiz-adv-x="512" d="M0 768v512h256v-512h-256z" />
<glyph unicode="(" d="M0 0v1024h256v-1024h-256zM256 0h256v-256h-256v256zM256 1024v256h256v-256h-256zM512 -256h256v-256h-256v256zM512 1280v256h256v-256h-256z" />
<glyph unicode=")" d="M0 -256h256v-256h-256v256zM0 1280v256h256v-256h-256zM256 0h256v-256h-256v256zM256 1024v256h256v-256h-256zM512 0v1024h256v-1024h-256z" />
<glyph unicode="*" d="M0 512v256h256v-256h-256zM0 1024v256h256v-256h-256zM256 768v256h256v-256h-256zM512 512v256h256v-256h-256zM512 1024v256h256v-256h-256z" />
<glyph unicode="+" horiz-adv-x="1536" d="M0 512v256h512v512h256v-512h512v-256h-512v-512h-256v512h-512z" />
<glyph unicode="," horiz-adv-x="768" d="M0 0v256h256v-256h-256zM0 -256h256v-256h-256v256zM256 0h256v-256h-256v256z" />
<glyph unicode="-" horiz-adv-x="1280" d="M0 512v256h1024v-256h-1024z" />
<glyph unicode="." horiz-adv-x="768" d="M256 0v256h256v-256h-256z" />
<glyph unicode="/" horiz-adv-x="1280" d="M0 0h256v-512h-256v512zM256 0v512h256v-512h-256zM512 512v512h256v-512h-256zM768 1024v512h256v-512h-256z" />
<glyph unicode="0" horiz-adv-x="1280" d="M0 0v1280h1024v-1280h-1024zM256 256h512v768h-512v-768z" />
<glyph unicode="1" d="M0 0v256h256v512h-256v256h256v256h256v-1024h256v-256h-768z" />
<glyph unicode="2" d="M0 0v512h256v-256h512v-256h-768zM0 1024v256h768v-512h-256v256h-512zM256 512v256h256v-256h-256z" />
<glyph unicode="3" d="M0 0v256h512v256h-512v256h512v256h-512v256h768v-1280h-768z" />
<glyph unicode="4" d="M0 512v768h256v-512h256v512h256v-1280h-256v512h-512z" />
<glyph unicode="5" horiz-adv-x="1280" d="M0 0v256h768v-256h-768zM0 512v768h1024v-256h-768v-256h512v-256h-768zM768 256v256h256v-256h-256z" />
<glyph unicode="6" d="M0 0v1280h768v-256h-512v-256h512v-768h-768zM256 256h256v256h-256v-256z" />
<glyph unicode="7" d="M0 1024v256h768v-1280h-256v1024h-512z" />
<glyph unicode="8" d="M0 0v1280h768v-1280h-768zM256 256h256v256h-256v-256zM256 768h256v256h-256v-256z" />
<glyph unicode="9" d="M0 512v768h768v-1280h-256v512h-512zM256 768h256v256h-256v-256z" />
<glyph unicode=":" horiz-adv-x="512" d="M0 256v256h256v-256h-256zM0 1024v256h256v-256h-256z" />
<glyph unicode=";" horiz-adv-x="768" d="M0 0h256v-256h-256v256zM0 256v256h256v-256h-256zM0 1024v256h256v-256h-256zM256 0v256h256v-256h-256z" />
<glyph unicode="&#x3c;" d="M0 512v256h256v-256h-256zM256 256v256h256v-256h-256zM256 768v256h256v-256h-256zM512 0v256h256v-256h-256zM512 1024v256h256v-256h-256z" />
<glyph unicode="=" d="M0 256v256h768v-256h-768zM0 768v256h768v-256h-768z" />
<glyph unicode="&#x3e;" d="M0 512v256h256v-256h-256zM256 256v256h256v-256h-256zM256 768v256h256v-256h-256zM512 0v256h256v-256h-256zM512 1024v256h256v-256h-256z" />
<glyph unicode="?" d="M0 768v256h256v-256h-256zM256 0h256v-256h-256v256zM256 256v256h256v-256h-256zM256 1024v256h256v-256h-256zM512 512v512h256v-512h-256z" />
<glyph unicode="@" horiz-adv-x="3328" d="M0 -512v2048h512v-256h-256v-1536h256v-256h-512zM768 -256v768h256v-256h256v256h256v-768h-256v256h-256v-256h-256zM1024 512v256h256v-256h-256zM1792 0v768h256v-256h256v-256h-256v-256h-256zM2048 0h256v-256h-256v256zM2560 -256h256v1536h-256v256h512v-2048 h-512v256z" />
<glyph unicode="A" horiz-adv-x="1280" d="M0 0v1280h1024v-1280h-256v256h-512v-256h-256zM256 512h512v512h-512v-512z" />
<glyph unicode="B" horiz-adv-x="1280" d="M0 0v1280h1024v-512h-256v256h-512v-256h512v-256h-512v-256h512v256h256v-512h-1024z" />
<glyph unicode="C" horiz-adv-x="1280" d="M0 0v1280h1024v-256h-768v-768h768v-256h-1024z" />
<glyph unicode="D" horiz-adv-x="1280" d="M0 0v1280h768v-256h-512v-768h512v-256h-768zM768 256v768h256v-768h-256z" />
<glyph unicode="E" horiz-adv-x="1280" d="M0 0v1280h1024v-256h-768v-256h512v-256h-512v-256h768v-256h-1024z" />
<glyph unicode="F" horiz-adv-x="1280" d="M0 0v1280h1024v-256h-768v-256h512v-256h-512v-512h-256z" />
<glyph unicode="G" horiz-adv-x="1280" d="M0 0v1280h1024v-256h-768v-768h512v256h-256v256h512v-768h-1024z" />
<glyph unicode="H" horiz-adv-x="1280" d="M0 0v1280h256v-512h512v512h256v-1280h-256v512h-512v-512h-256z" />
<glyph unicode="I" d="M0 0v256h256v768h-256v256h768v-256h-256v-768h256v-256h-768z" />
<glyph unicode="J" horiz-adv-x="1280" d="M0 0v256h512v-256h-512zM256 1024v256h768v-256h-256v-768h-256v768h-256z" />
<glyph unicode="K" horiz-adv-x="1280" d="M0 0v1280h256v-512h256v-256h-256v-512h-256zM512 256v256h256v-256h-256zM512 768v256h256v-256h-256zM768 0v256h256v-256h-256zM768 1024v256h256v-256h-256z" />
<glyph unicode="L" horiz-adv-x="1280" d="M0 0v1280h256v-1024h768v-256h-1024z" />
<glyph unicode="M" horiz-adv-x="1536" d="M0 0v1280h1280v-1280h-256v1024h-256v-1024h-256v1024h-256v-1024h-256z" />
<glyph unicode="N" horiz-adv-x="1280" d="M0 0v1280h256v-256h256v-256h-256v-768h-256zM512 512v256h256v512h256v-1280h-256v512h-256z" />
<glyph unicode="O" horiz-adv-x="1280" d="M0 256v768h256v-768h-256zM256 0v256h512v-256h-512zM256 1024v256h512v-256h-512zM768 256v768h256v-768h-256z" />
<glyph unicode="P" horiz-adv-x="1280" d="M0 0v1280h768v-256h-512v-256h512v-256h-512v-512h-256zM768 768v256h256v-256h-256z" />
<glyph unicode="Q" horiz-adv-x="1536" d="M0 0v1280h1024v-1280h-1024zM256 256h256v256h256v512h-512v-768zM1024 0h256v-256h-256v256z" />
<glyph unicode="R" d="M0 0v1280h768v-768h-256v-256h-256v-256h-256zM256 768h256v256h-256v-256zM512 0v256h256v-256h-256z" />
<glyph unicode="S" horiz-adv-x="1280" d="M0 0v256h768v256h-768v768h1024v-256h-768v-256h768v-768h-1024z" />
<glyph unicode="T" d="M0 1024v256h768v-256h-256v-1024h-256v1024h-256z" />
<glyph unicode="U" horiz-adv-x="1280" d="M0 256v1024h256v-1024h-256zM256 0v256h512v-256h-512zM768 256v1024h256v-1024h-256z" />
<glyph unicode="V" d="M0 256v1024h256v-1024h-256zM256 0v256h256v-256h-256zM512 256v1024h256v-1024h-256z" />
<glyph unicode="W" horiz-adv-x="1536" d="M0 256v1024h256v-1024h-256zM256 0v256h256v-256h-256zM512 256v768h256v-768h-256zM768 0v256h256v-256h-256zM1024 256v1024h256v-1024h-256z" />
<glyph unicode="X" horiz-adv-x="1536" d="M0 0v256h256v-256h-256zM0 1024v256h256v-256h-256zM256 256v256h256v-256h-256zM256 768v256h256v-256h-256zM512 512v256h256v-256h-256zM768 256v256h256v-256h-256zM768 768v256h256v-256h-256zM1024 0v256h256v-256h-256zM1024 1024v256h256v-256h-256z" />
<glyph unicode="Y" d="M0 768v512h256v-512h-256zM256 0v768h256v-768h-256zM512 768v512h256v-512h-256z" />
<glyph unicode="Z" d="M0 0v512h256v-256h512v-256h-768zM0 1024v256h768v-512h-256v256h-512zM256 512v256h256v-256h-256z" />
<glyph unicode="[" horiz-adv-x="768" d="M0 -512v2048h512v-256h-256v-1536h256v-256h-512z" />
<glyph unicode="\" horiz-adv-x="1280" d="M0 1024v512h256v-512h-256zM256 512v512h256v-512h-256zM512 0v512h256v-512h-256zM768 0h256v-512h-256v512z" />
<glyph unicode="]" horiz-adv-x="768" d="M0 -256h256v1536h-256v256h512v-2048h-512v256z" />
<glyph unicode="^" horiz-adv-x="1536" d="M0 1024v256h256v-256h-256zM256 1280v256h256v-256h-256zM512 1536v256h256v-256h-256zM768 1280v256h256v-256h-256zM1024 1024v256h256v-256h-256z" />
<glyph unicode="_" horiz-adv-x="1280" d="M0 0h1024v-256h-1024v256z" />
<glyph unicode="`" d="M0 1536v256h256v-256h-256zM256 1280v256h256v-256h-256zM512 1024v256h256v-256h-256z" />
<glyph unicode="a" d="M0 0v768h256v-256h256v256h256v-768h-256v256h-256v-256h-256zM256 768v256h256v-256h-256z" />
<glyph unicode="b" d="M0 0v1280h256v-512h512v-768h-768zM256 256h256v256h-256v-256z" />
<glyph unicode="c" d="M0 0v768h768v-256h-512v-256h512v-256h-768z" />
<glyph unicode="d" d="M0 0v768h512v512h256v-1280h-768zM256 256h256v256h-256v-256z" />
<glyph unicode="e" d="M0 -256v1280h768v-768h-512v-256h512v-256h-768zM256 512h256v256h-256v-256z" />
<glyph unicode="f" horiz-adv-x="768" d="M0 0v1024h256v-256h256v-256h-256v-512h-256zM256 1024v256h256v-256h-256z" />
<glyph unicode="g" d="M0 0v768h768v-1280h-256v512h-512zM0 -256h256v-256h-256v256zM256 256h256v256h-256v-256zM256 -512h256v-256h-256v256z" />
<glyph unicode="h" d="M0 0v1280h256v-512h512v-768h-256v512h-256v-512h-256z" />
<glyph unicode="i" horiz-adv-x="512" d="M0 0v768h256v-768h-256zM0 1024v256h256v-256h-256z" />
<glyph unicode="j" horiz-adv-x="768" d="M0 -256h256v1024h256v-1280h-512v256zM256 1024v256h256v-256h-256z" />
<glyph unicode="k" d="M0 0v1280h256v-768h256v-256h-256v-256h-256zM512 0v256h256v-256h-256zM512 512v256h256v-256h-256z" />
<glyph unicode="l" horiz-adv-x="512" d="M0 0v1280h256v-1280h-256z" />
<glyph unicode="m" horiz-adv-x="1536" d="M0 0v768h1280v-768h-256v512h-256v-512h-256v512h-256v-512h-256z" />
<glyph unicode="n" d="M0 0v768h768v-768h-256v512h-256v-512h-256z" />
<glyph unicode="o" d="M0 0v768h768v-768h-768zM256 256h256v256h-256v-256z" />
<glyph unicode="p" d="M0 -768v1536h768v-768h-512v-768h-256zM256 256h256v256h-256v-256z" />
<glyph unicode="q" d="M0 0v768h768v-1280h-256v512h-512zM256 256h256v256h-256v-256z" />
<glyph unicode="r" horiz-adv-x="768" d="M0 0v768h512v-256h-256v-512h-256z" />
<glyph unicode="s" d="M0 0h512v256h-512v768h768v-256h-512v-256h512v-768h-768v256z" />
<glyph unicode="t" horiz-adv-x="768" d="M0 0v1280h256v-512h256v-256h-256v-512h-256zM256 0h256v-256h-256v256z" />
<glyph unicode="u" d="M0 0v768h256v-512h256v512h256v-768h-768z" />
<glyph unicode="v" d="M0 256v512h256v-512h-256zM256 0v256h256v-256h-256zM512 256v512h256v-512h-256z" />
<glyph unicode="w" horiz-adv-x="1536" d="M0 256v512h256v-512h-256zM256 0v256h256v-256h-256zM512 256v512h256v-512h-256zM768 0v256h256v-256h-256zM1024 256v512h256v-512h-256z" />
<glyph unicode="x" d="M0 0v256h256v-256h-256zM0 512v256h256v-256h-256zM256 256v256h256v-256h-256zM512 0v256h256v-256h-256zM512 512v256h256v-256h-256z" />
<glyph unicode="y" d="M0 0v768h256v-512h256v512h256v-1280h-768v256h512v256h-512z" />
<glyph unicode="z" d="M0 0v512h256v-256h512v-256h-768zM0 1024v256h768v-512h-256v256h-512zM256 512v256h256v-256h-256z" />
<glyph unicode="{" horiz-adv-x="1280" d="M0 512v256h256v-256h-256zM256 256v256h256v-256h-256zM256 768v256h256v-256h-256zM512 256h256v-512h256v-256h-512v768zM512 1024v768h512v-256h-256v-512h-256z" />
<glyph unicode="|" horiz-adv-x="768" d="M256 -512v2048h256v-2048h-256z" />
<glyph unicode="}" horiz-adv-x="1280" d="M0 -256h256v512h256v-768h-512v256zM0 1536v256h512v-768h-256v512h-256zM512 256v256h256v-256h-256zM512 768v256h256v-256h-256zM768 512v256h256v-256h-256z" />
<glyph unicode="~" horiz-adv-x="1536" d="M0 1024v512h768v-256h256v256h256v-512h-768v256h-256v-256h-256z" />
<glyph unicode="&#xaa;" d="M0 0v768h256v-256h256v256h256v-768h-256v256h-256v-256h-256zM256 768v256h256v-256h-256z" />
<glyph unicode="&#xad;" horiz-adv-x="1280" d="M0 512v256h1024v-256h-1024z" />
<glyph unicode="&#xb2;" d="M0 0v512h256v-256h512v-256h-768zM0 1024v256h768v-512h-256v256h-512zM256 512v256h256v-256h-256z" />
<glyph unicode="&#xb3;" d="M0 0v256h512v256h-512v256h512v256h-512v256h768v-1280h-768z" />
<glyph unicode="&#xb9;" d="M0 0v256h256v512h-256v256h256v256h256v-1024h256v-256h-768z" />
<glyph unicode="&#xba;" d="M0 0v768h768v-768h-768zM256 256h256v256h-256v-256z" />
<glyph unicode="&#xc0;" horiz-adv-x="1280" d="M-128 1914v256h256v-256h-256zM0 0v1280h1024v-1280h-256v256h-512v-256h-256zM128 1658v256h256v-256h-256zM256 512h512v512h-512v-512zM384 1402v256h256v-256h-256z" />
<glyph unicode="&#xc2;" horiz-adv-x="1280" d="M-128 1402v256h256v-256h-256zM0 0v1280h1024v-1280h-256v256h-512v-256h-256zM128 1658v256h256v-256h-256zM256 512h512v512h-512v-512zM384 1914v256h256v-256h-256zM640 1658v256h256v-256h-256zM896 1402v256h256v-256h-256z" />
<glyph unicode="&#xc3;" horiz-adv-x="1280" d="M-128 1402v512h768v-256h256v256h256v-512h-768v256h-256v-256h-256zM0 0v1280h1024v-1280h-256v256h-512v-256h-256zM256 512h512v512h-512v-512z" />
<glyph unicode="&#xc8;" horiz-adv-x="1280" d="M-128 1914v256h256v-256h-256zM0 0v1280h1024v-256h-768v-256h512v-256h-512v-256h768v-256h-1024zM128 1658v256h256v-256h-256zM384 1402v256h256v-256h-256z" />
<glyph unicode="&#xca;" horiz-adv-x="1280" d="M-128 1402v256h256v-256h-256zM0 0v1280h1024v-256h-768v-256h512v-256h-512v-256h768v-256h-1024zM128 1658v256h256v-256h-256zM384 1914v256h256v-256h-256zM640 1658v256h256v-256h-256zM896 1402v256h256v-256h-256z" />
<glyph unicode="&#xcc;" d="M-256 1914v256h256v-256h-256zM0 0v256h256v768h-256v256h768v-256h-256v-768h256v-256h-768zM0 1658v256h256v-256h-256zM256 1402v256h256v-256h-256z" />
<glyph unicode="&#xce;" d="M-256 1402v256h256v-256h-256zM0 0v256h256v768h-256v256h768v-256h-256v-768h256v-256h-768zM0 1658v256h256v-256h-256zM256 1914v256h256v-256h-256zM512 1658v256h256v-256h-256zM768 1402v256h256v-256h-256z" />
<glyph unicode="&#xd1;" horiz-adv-x="1280" d="M-128 1402v512h768v-256h256v256h256v-512h-768v256h-256v-256h-256zM0 0v1280h256v-256h256v-256h-256v-768h-256zM512 512v256h256v512h256v-1280h-256v512h-256z" />
<glyph unicode="&#xd2;" horiz-adv-x="1280" d="M-128 1914v256h256v-256h-256zM0 256v768h256v-768h-256zM128 1658v256h256v-256h-256zM256 0v256h512v-256h-512zM256 1024v256h512v-256h-512zM384 1402v256h256v-256h-256zM768 256v768h256v-768h-256z" />
<glyph unicode="&#xd4;" horiz-adv-x="1280" d="M-128 1402v256h256v-256h-256zM0 256v768h256v-768h-256zM128 1658v256h256v-256h-256zM256 0v256h512v-256h-512zM256 1024v256h512v-256h-512zM384 1914v256h256v-256h-256zM640 1658v256h256v-256h-256zM768 256v768h256v-768h-256zM896 1402v256h256v-256h-256z" />
<glyph unicode="&#xd5;" horiz-adv-x="1280" d="M-128 1402v512h768v-256h256v256h256v-512h-768v256h-256v-256h-256zM0 256v768h256v-768h-256zM256 0v256h512v-256h-512zM256 1024v256h512v-256h-512zM768 256v768h256v-768h-256z" />
<glyph unicode="&#xd9;" horiz-adv-x="1280" d="M-128 1914v256h256v-256h-256zM0 256v1024h256v-1024h-256zM128 1658v256h256v-256h-256zM256 0v256h512v-256h-512zM384 1402v256h256v-256h-256zM768 256v1024h256v-1024h-256z" />
<glyph unicode="&#xdb;" horiz-adv-x="1280" d="M-128 1402v256h256v-256h-256zM0 256v1024h256v-1024h-256zM128 1658v256h256v-256h-256zM256 0v256h512v-256h-512zM384 1914v256h256v-256h-256zM640 1658v256h256v-256h-256zM768 256v1024h256v-1024h-256zM896 1402v256h256v-256h-256z" />
<glyph unicode="&#xe0;" d="M-256 1658v256h256v-256h-256zM0 0v768h256v-256h256v256h256v-768h-256v256h-256v-256h-256zM0 1402v256h256v-256h-256zM256 768v256h256v-256h-256zM256 1146v256h256v-256h-256z" />
<glyph unicode="&#xe2;" d="M-256 1146v256h256v-256h-256zM0 0v768h256v-256h256v256h256v-768h-256v256h-256v-256h-256zM0 1402v256h256v-256h-256zM256 768v256h256v-256h-256zM256 1658v256h256v-256h-256zM512 1402v256h256v-256h-256zM768 1146v256h256v-256h-256z" />
<glyph unicode="&#xe3;" d="M-256 1146v512h768v-256h256v256h256v-512h-768v256h-256v-256h-256zM0 0v768h256v-256h256v256h256v-768h-256v256h-256v-256h-256zM256 768v256h256v-256h-256z" />
<glyph unicode="&#xe8;" d="M-256 1658v256h256v-256h-256zM0 -256v1280h768v-768h-512v-256h512v-256h-768zM0 1402v256h256v-256h-256zM256 512h256v256h-256v-256zM256 1146v256h256v-256h-256z" />
<glyph unicode="&#xea;" d="M-256 1146v256h256v-256h-256zM0 -256v1280h768v-768h-512v-256h512v-256h-768zM0 1402v256h256v-256h-256zM256 512h256v256h-256v-256zM256 1658v256h256v-256h-256zM512 1402v256h256v-256h-256zM768 1146v256h256v-256h-256z" />
<glyph unicode="&#xec;" horiz-adv-x="512" d="M-512 1914v256h256v-256h-256zM-256 1658v256h256v-256h-256zM0 0v768h256v-768h-256zM0 1024v256h256v-256h-256zM0 1402v256h256v-256h-256z" />
<glyph unicode="&#xee;" horiz-adv-x="512" d="M-512 1402v256h256v-256h-256zM-256 1658v256h256v-256h-256zM0 0v768h256v-768h-256zM0 1024v256h256v-256h-256zM0 1914v256h256v-256h-256zM256 1658v256h256v-256h-256zM512 1402v256h256v-256h-256z" />
<glyph unicode="&#xf1;" d="M-256 890v512h768v-256h256v256h256v-512h-768v256h-256v-256h-256zM0 0v768h768v-768h-256v512h-256v-512h-256z" />
<glyph unicode="&#xf2;" d="M-256 1402v256h256v-256h-256zM0 0v768h768v-768h-768zM0 1146v256h256v-256h-256zM256 256h256v256h-256v-256zM256 890v256h256v-256h-256z" />
<glyph unicode="&#xf4;" d="M-256 890v256h256v-256h-256zM0 0v768h768v-768h-768zM0 1146v256h256v-256h-256zM256 256h256v256h-256v-256zM256 1402v256h256v-256h-256zM512 1146v256h256v-256h-256zM768 890v256h256v-256h-256z" />
<glyph unicode="&#xf5;" d="M-256 890v512h768v-256h256v256h256v-512h-768v256h-256v-256h-256zM0 0v768h768v-768h-768zM256 256h256v256h-256v-256z" />
<glyph unicode="&#xf9;" d="M-256 1402v256h256v-256h-256zM0 0v768h256v-512h256v512h256v-768h-768zM0 1146v256h256v-256h-256zM256 890v256h256v-256h-256z" />
<glyph unicode="&#xfb;" d="M-256 890v256h256v-256h-256zM0 0v768h256v-512h256v512h256v-768h-768zM0 1146v256h256v-256h-256zM256 1402v256h256v-256h-256zM512 1146v256h256v-256h-256zM768 890v256h256v-256h-256z" />
<glyph unicode="&#x152;" horiz-adv-x="2560" d="M0 256v768h256v-768h-256zM256 0v256h512v-256h-512zM256 1024v256h512v-256h-512zM768 256v768h256v-768h-256zM1280 0v1280h1024v-256h-768v-256h512v-256h-512v-256h768v-256h-1024z" />
<glyph unicode="&#x153;" horiz-adv-x="2048" d="M0 0v768h768v-768h-768zM256 256h256v256h-256v-256zM1024 -256v1280h768v-768h-512v-256h512v-256h-768zM1280 512h256v256h-256v-256z" />
<glyph unicode="&#x2c6;" horiz-adv-x="1536" d="M0 1024v256h256v-256h-256zM256 1280v256h256v-256h-256zM512 1536v256h256v-256h-256zM768 1280v256h256v-256h-256zM1024 1024v256h256v-256h-256z" />
<glyph unicode="&#x2dc;" horiz-adv-x="1408" d="M-640 122v512h768v-256h256v256h256v-512h-768v256h-256v-256h-256z" />
<glyph unicode="&#x2013;" d="M0 512v256h768v-256h-768z" />
<glyph unicode="&#x2014;" horiz-adv-x="2048" d="M0 512v256h1792v-256h-1792z" />
<glyph unicode="&#x2018;" horiz-adv-x="768" d="M0 768v256h256v-256h-256zM256 512v256h256v-256h-256zM256 1024v256h256v-256h-256z" />
<glyph unicode="&#x2019;" horiz-adv-x="768" d="M0 512v256h256v-256h-256zM0 1024v256h256v-256h-256zM256 768v256h256v-256h-256z" />
<glyph unicode="&#x201c;" horiz-adv-x="1536" d="M0 768v256h256v-256h-256zM256 512v256h256v-256h-256zM256 1024v256h256v-256h-256zM768 768v256h256v-256h-256zM1024 512v256h256v-256h-256zM1024 1024v256h256v-256h-256z" />
<glyph unicode="&#x201d;" horiz-adv-x="1536" d="M0 512v256h256v-256h-256zM0 1024v256h256v-256h-256zM256 768v256h256v-256h-256zM768 512v256h256v-256h-256zM768 1024v256h256v-256h-256zM1024 768v256h256v-256h-256z" />
<glyph unicode="&#x2026;" horiz-adv-x="2304" d="M256 0v256h256v-256h-256zM1024 0v256h256v-256h-256zM1792 0v256h256v-256h-256z" />
<glyph unicode="&#x2039;" d="M0 512v256h256v-256h-256zM256 256v256h256v-256h-256zM256 768v256h256v-256h-256zM512 0v256h256v-256h-256zM512 1024v256h256v-256h-256z" />
<glyph unicode="&#x203a;" d="M0 512v256h256v-256h-256zM256 256v256h256v-256h-256zM256 768v256h256v-256h-256zM512 0v256h256v-256h-256zM512 1024v256h256v-256h-256z" />
<glyph unicode="&#x2122;" horiz-adv-x="2560" d="M0 1024v256h768v-256h-256v-1024h-256v1024h-256zM1024 0v1280h1280v-1280h-256v1024h-256v-1024h-256v1024h-256v-1024h-256z" />
<glyph unicode="&#xe000;" horiz-adv-x="770" d="M0 770h770v-770h-770v770z" />
<glyph unicode="&#xfb01;" horiz-adv-x="1280" d="M0 0v1024h256v-256h256v-256h-256v-512h-256zM256 1024v256h256v-256h-256zM768 0v768h256v-768h-256zM768 1024v256h256v-256h-256z" />
<glyph unicode="&#xfb02;" horiz-adv-x="1280" d="M0 0v1024h256v-256h256v-256h-256v-512h-256zM256 1024v256h256v-256h-256zM768 0v1280h256v-1280h-256z" />
<glyph unicode="&#xfb03;" horiz-adv-x="2048" d="M0 0v1024h256v-256h256v-256h-256v-512h-256zM256 1024v256h256v-256h-256zM768 0v1024h256v-256h256v-256h-256v-512h-256zM1024 1024v256h256v-256h-256zM1536 0v768h256v-768h-256zM1536 1024v256h256v-256h-256z" />
<glyph unicode="&#xfb04;" horiz-adv-x="2048" d="M0 0v1024h256v-256h256v-256h-256v-512h-256zM256 1024v256h256v-256h-256zM768 0v1024h256v-256h256v-256h-256v-512h-256zM1024 1024v256h256v-256h-256zM1536 0v1280h256v-1280h-256z" />
</font>
</defs>
</svg>
